<svg xmlns="http://www.w3.org/2000/svg" viewBox="0 0 191.87 236.52"><defs><style>.cls-1{fill:#1869aa;}</style></defs><g id="Layer_2" data-name="Layer 2"><g id="Layer_1-2" data-name="Layer 1"><path class="cls-1" d="M191.87,73.45c-7.13,2.84-12.52,8.3-18.63,12.64-15.4,10.94-30.56,22.24-45.82,33.39-1.57,1.15-3.13,3-5.18,1.07-1.86-1.71-.16-3.38.51-5,3.5-8.21,7-16.43,10.67-24.57a9.57,9.57,0,0,0,.06-7.67c-1.24-3.41-2.19-6.92-3.43-10.33-1-2.82-.05-4.26,2.77-4.26q28.59,0,57.18.11a6.83,6.83,0,0,1,1.87.58Z"/><path class="cls-1" d="M121.69,82.1c-2.71.44-3.78-1.37-5.06-2.48-5.49-4.77-11.1-9.44-16.15-14.64-4.16-4.27-8.72-5.67-14.56-5.48-12.65.43-11.65.8-7.67-11q7.43-22.11,15-44.15c.62-1.82.69-4.4,3.29-4.31,2.23.08,2.29,2.42,2.83,4.13q10.74,34.13,21.53,68.22C121.87,75.51,122.94,78.62,121.69,82.1Z"/><path class="cls-1" d="M37.69,184.08c-3.49-.78-3-2.69-2.2-5q7.8-23.26,15.45-46.58c2.91-8.81,5.76-17.63,8.74-26.41.55-1.6.69-4,3.1-3.94s2.26,2.37,2.65,4.1c2.13,9.36,4.82,18.61,6,28.14.23,1.77,1.29,2.07,2.26,2.78,3.35,2.43,6.64,5,10.12,7.18,3.81,2.44,3.1,4.48-.09,6.73q-15,10.6-30,21.3c-4.39,3.15-8.63,6.52-13,9.74C39.76,182.9,38.6,183.51,37.69,184.08Z"/><path class="cls-1" d="M155.73,183.78a7,7,0,0,1-6.91-1.26q-30-22.43-60.19-44.72c-1.33-1-3-1.93-2.2-3.94s2.76-1.47,4.36-1.31c7.91.79,15.84,1.51,23.73,2.52,4.66.6,8.82.24,12.33-3.32a32.22,32.22,0,0,1,4.39-3.26c6.12-4.37,6.44-4,8.61,3,4.72,15.4,9.82,30.69,14.71,46C155.19,179.53,156.57,181.41,155.73,183.78Z"/><path class="cls-1" d="M43.22,68.61c12.42,0,24.84,0,37.26,0,1.83,0,4.33-.89,5,1.88.57,2.4-1.76,2.88-3.23,3.78Q71,81.16,59.69,87.93c-2.95,1.77-4.9,3.91-5.15,7.72-.19,2.73-1.71,5.34-2.38,8.07-1.06,4.38-3.21,4.31-6.36,2C36.5,98.81,27.13,92,17.8,85.16,12.6,81.35,7.43,77.5,2.24,73.69,1,72.82-.54,72.1.18,70.24c.65-1.71,2.28-1.63,3.8-1.63Q23.6,68.63,43.22,68.61Z"/><path class="cls-1" d="M8.81,224.41c0-1.74,0-2.89,0-4-.07-11.19,2-13.33,13.11-13.29,2.91,0,5.85.38,5.74-3.89h6c1,2.4.43,4.89.54,7.29s0,4.63,0,7.32H49.46v-8.23c2.45-1.09,4.54-.81,7-.4v8.65h13V203.23c8.26,0,16-.22,23.74.08,4.82.18,9.87,5.69,10.11,10.46.17,3.45,0,6.91,0,10.64Zm67.08-14.68v8.18H97c-.08-3.88.53-7.91-4.81-8.13S81.61,209.73,75.89,209.73Zm-48.67,3.65c-11-.59-11.57-.61-10.95,4.67,3.61-.06,7.27.64,11-.39Z"/><path class="cls-1" d="M84.34,112.08c4.08,1.54,7.65,2.8,11.54,2.51,2.48-.19,5-.71,5-3.61s-2.38-3.76-4.84-4c-2.11-.22-4.24-.25-6.41-.36-.73-3.35-.33-6.41-.22-10,2.13,0,3.92.09,5.69,0,2-.13,4.51-.38,4.44-2.91-.09-3-2.91-2.71-5-2.71-3,0-5.79,1.19-8.62,2.35-.23-.26-.54-.48-.64-.76C82,83,82.83,81.69,93,80.43c4.15-.51,8.26-.64,12.25.78,4.31,1.54,7.5,4.16,8.07,9.09s-1.12,8.4-5.89,10.6c2.62,1.88,5.41,3.3,6.69,6.36,2.77,6.59-1.57,14.52-9.74,17.18-6.34,2.06-12.73,1.51-19-.37-2.39-.7-3.74-1.91-2.87-4.67C83.14,117.2,83.61,114.94,84.34,112.08Z"/><path class="cls-1" d="M173.66,224.67H156.53c-1.7,10.68-3.85,12.56-12.94,11.64-1.14-1.64-.25-3.45-.63-5.64,6.18.66,6.91-2.83,6.54-7.63-.35-4.45-.08-8.95-.08-13.4,2-1.23,3.89-.94,6.2-.28v8.39a43.21,43.21,0,0,0,12,.08V190.67c2.1-1.16,3.91-.63,6-.57Z"/><path class="cls-1" d="M115,217.91h16.05v-8.65h5.69c.19.36.45.62.46.89.74,14.55.74,14.55-13.83,14.55H109.13V194.37a8.44,8.44,0,0,1,5.9-.3Z"/><path class="cls-1" d="M185.68,224.5h-5.59V190.37a9.41,9.41,0,0,1,5.59-.08Z"/><path class="cls-1" d="M131.91,233c-1.43,2.74-3.15,3.48-5.12,1.89a2.47,2.47,0,0,1,0-3.93c2.31-2,3.74,0,5.15,1.67,1.64-1.31,3-3.78,5.38-1.61a2.49,2.49,0,0,1,.1,3.92C135.23,236.71,133.54,235.16,131.91,233Z"/><path class="cls-1" d="M47.55,230.15c2.21,0,3.29,1.1,3.43,3a2.56,2.56,0,0,1-2.47,3A2.9,2.9,0,0,1,45,233.48,2.7,2.7,0,0,1,47.55,230.15Z"/><path class="cls-1" d="M58.63,233.89c-.1,1.59-1.29,2.47-3.25,2.35a2.68,2.68,0,0,1-2.72-2.92c0-1.92,1-3.19,3-3.12S58.71,231.39,58.63,233.89Z"/><path class="cls-1" d="M26.49,193.68c-.17,1.78-1.12,2.7-2.92,2.58a2.56,2.56,0,0,1-2.59-3A2.42,2.42,0,0,1,23.65,191,2.59,2.59,0,0,1,26.49,193.68Z"/><path class="cls-1" d="M19.68,193.58c-.33,1.69-1.09,2.77-2.92,2.67a2.4,2.4,0,0,1-2.51-2.43c-.09-1.66.67-2.79,2.53-2.83S19.29,192.12,19.68,193.58Z"/><path class="cls-1" d="M81,196.11c1.54-1.25,3.24-.79,4.87-.74.74,2.07-.09,3.19-1.7,3.5C82.29,199.23,81.08,198.36,81,196.11Z"/></g></g></svg>